<?xml version="1.0" encoding="UTF-8"?>
<!DOCTYPE svg PUBLIC "-//W3C//DTD SVG 1.1//EN" "http://www.w3.org/Graphics/SVG/1.1/DTD/svg11.dtd">
<!-- Creator: CorelDRAW 2019 (64 Bit) -->
<svg xmlns="http://www.w3.org/2000/svg" xml:space="preserve" width="66.0392mm" height="51.8704mm" version="1.1" style="shape-rendering:geometricPrecision; text-rendering:geometricPrecision; image-rendering:optimizeQuality; fill-rule:evenodd; clip-rule:evenodd"
viewBox="0 0 17364.96 13639.29"
 xmlns:xlink="http://www.w3.org/1999/xlink">
 <defs>
  <style type="text/css">
   <![CDATA[
    .fil0 {fill:#A68160}
   ]]>
  </style>
 </defs>
 <g id="Camada_x0020_1">
  <metadata id="CorelCorpID_0Corel-Layer"/>
  <path class="fil0" d="M16556.32 111.07l-250.41 93.85c-96.55,33.16 -168.6,60.19 -263.11,84.67l-730.42 322.77c-807.44,374.1 -1928.84,1063.79 -2595.28,1612.56 -550.25,453.06 -560.84,449.85 -1072.54,1020.01 -146.96,163.74 -379.15,512.86 -449.72,582.77 -24.59,64.92 3.42,37.26 -59.66,75.52 -9.12,66.55 -6.39,40.89 -54.22,113.23 -26.74,40.42 -45.46,70.63 -68.97,109.68 -41.62,69.18 -80.73,139.05 -129.19,212.02 -544.88,900.39 -1081.83,2311.25 -1218.53,3561.65l-44.7 446.33c-28.61,471.94 -8.44,886.51 35.95,1344.93l73.84 418.96 107.73 455.61c54.67,140.13 93.16,289.95 152.8,435.89 167.95,410.99 360.92,772.78 617.22,1119.45 902.13,1220.3 2633.81,1824.53 4154.23,1364.08 257.24,-77.91 793.13,-328.53 821.01,-331.24 44.04,-62.45 177.6,-132.82 247.2,-180.59 79.02,-54.19 156.43,-132.32 246.54,-168.21l14.96 -7.2 107.91 -122.77c40.18,-37.39 65.42,-56.72 105.02,-95.63 79.28,-77.86 116.78,-148.93 218.48,-211.65l8.52 -15.99c34,-86.75 104.47,-153.09 158.69,-232.71 54.43,-79.96 90.06,-131.92 140.39,-215.38 53.46,-88.72 192.51,-415.3 248.8,-464.08l123.77 -412.75c64.92,-408.26 132.32,-683.54 114.41,-1135.39 -14.94,-377.75 -51.85,-745.22 -103.16,-1113.12 -98.58,-394.53 -147.83,-590.98 -330.47,-907.04 -831.03,-1438.18 -3035.88,-1700.36 -3567.3,-2622.26 -314.88,-546.3 89.98,-1212.85 456.27,-1634.68l75.05 -69.79c12.31,-54.77 -26.37,5.18 33.84,-65.53 32.45,-38.1 30.4,-25.93 43.28,-33.29 30.92,-79.81 124.53,-175.33 180.96,-233.66 66.37,-68.6 99.37,-149.14 193.79,-190.16 -8.47,-29.9 -15.62,-26.9 13.49,-16.8 47.73,-102 116.09,-164.76 204.34,-248.99 46.1,-43.99 62.98,-70.76 105.52,-117.59 50.88,-55.98 56.09,-61.58 122.01,-79.44 21.98,-76.1 133.47,-143.81 201.42,-198.16 76.68,-61.29 156.14,-136.05 243.89,-167.6 15.67,-31.63 -0.74,-21.54 45.46,-55.09 74.2,-53.88 14.2,-19.59 73.36,-29.29 24.32,-31.97 7.63,-15.36 46.31,-50.67l315.88 -219.09c422.69,-283.54 1659.24,-941.17 1692.37,-1431.63 38.23,-566.05 -612.44,-283.46 -807.02,-296.5z"/>
  <path class="fil0" d="M6718.62 150.46l-471.57 164.42c-35.31,29.98 -783.17,367.84 -826.34,371.97 -46.33,54.98 -168.68,110.12 -238.84,147.83 -80.41,43.2 -143.31,74.68 -231.47,124.59 -91.06,51.56 -391.64,236.6 -460.66,244.04 -43.7,62.27 -392.79,273.36 -459.92,296.16 -38.47,65.63 -149.96,113.73 -226.74,170.02 -117.3,65.19 -287.11,193.29 -398.95,281.09 -134.45,105.57 -248.91,189.51 -388.24,301.71 -124.59,100.32 -266.1,214.67 -375.75,314.7 -111.12,101.34 -255.27,274.02 -347.99,336.86 -36.05,64.03 -32.61,66.5 -111.2,101.87 -28.66,88.48 -172.1,221.59 -249.62,321.48 -83.46,107.57 -160.82,210.81 -237.21,319.54 -131.66,187.43 -350.85,482.25 -436.05,701.18 -70.63,41.94 -398.63,728.76 -456.93,880.75l-181.51 455.03c-87.59,118.88 -293.95,852.96 -346.99,1059.48 -264.79,1030.95 -367.1,2156.89 -169.08,3215.42 27.11,144.94 130.24,464.92 124.14,581.35l180.49 486.88c35.39,44.52 65.4,113.41 65.71,174.78 54.75,53.25 115.93,202.26 157.95,275.89 160,280.41 307.39,531.05 518.3,772.57 285.98,327.48 552.9,554.11 947.98,788.14 905.62,536.44 1684.06,636.21 2857.44,456.37 73.89,-34.53 302.26,-100.71 383.33,-98.63 65.13,-63.27 383.51,-174.28 488.22,-228.32 161.37,-83.33 326.82,-214.12 464.24,-272.92l561.92 -524.22c36.6,-30.9 -0.32,-8.36 35.1,-21.27 28,-60.27 37.42,-64.66 76.94,-114.96 461.69,-587.22 531.26,-937.73 712.72,-1652.69 25.35,-286.17 40.1,-506.47 31,-804.13l14.86 -24.35c-51.88,-89.38 -42.86,-418.27 -50.57,-551.62l-55.06 -400.97c-118.01,-1070.52 -907.25,-1731.05 -1601.76,-2151.85 -747.64,-453.01 -1892.31,-795 -2287.58,-1421.61 -92.14,-138.97 -129.08,-264.08 -139.78,-456.03 2.81,-90.77 15.49,-181.44 35.68,-262.29l59.66 -164.92c16.99,-28.77 15.54,-24.82 32.08,-42.55 4.81,-199.47 514.88,-816.43 623.87,-946.96 108.18,-129.5 649.93,-768.57 740.96,-803.57 33.39,-59.93 6.84,-23.43 55.82,-69.73l383.75 -305.99c158.56,-120.46 302.94,-222.56 467.02,-334.52 404.71,-276.12 1696,-964.24 1768.62,-1438.99 94.9,-620.22 -712.72,-366.74 -1038.02,-251.04z"/>
 </g>
</svg>
