<?xml version="1.0" encoding="UTF-8"?>
<!DOCTYPE svg PUBLIC "-//W3C//DTD SVG 1.1//EN" "http://www.w3.org/Graphics/SVG/1.1/DTD/svg11.dtd">
<!-- Creator: CorelDRAW 2019 (64 Bit) -->
<svg xmlns="http://www.w3.org/2000/svg" xml:space="preserve" width="43.3493mm" height="37.4251mm" version="1.1" style="shape-rendering:geometricPrecision; text-rendering:geometricPrecision; image-rendering:optimizeQuality; fill-rule:evenodd; clip-rule:evenodd"
viewBox="0 0 906.91 782.97"
 xmlns:xlink="http://www.w3.org/1999/xlink">
 <defs>
  <style type="text/css">
   <![CDATA[
    .fil0 {fill:#A68160}
   ]]>
  </style>
 </defs>
 <g id="Camada_x0020_1">
  <metadata id="CorelCorpID_0Corel-Layer"/>
  <path class="fil0" d="M375.52 457.16c0,14.8 12.38,25.03 22.15,45.16 1.67,3.43 2.58,6.69 3.79,10.39 3.87,11.83 3.33,9.43 2.4,20.62 -8.7,2.03 -10.38,3.54 -21.26,3.54 -77.14,0 -62.65,-156.96 -23.36,-188.1 4.9,-3.88 56.41,-24.14 69.67,-29.53 29.04,-11.8 16.62,-15.15 45.19,-1.41 7.85,3.78 15.93,6.96 23.64,10.02 41.01,16.3 57.93,15.68 72.86,59.99 11.04,32.74 12.2,88.57 -2.55,120.14 -15.05,32.22 -38.07,31.62 -64.99,25.34 -7.34,-30.66 28.34,-53.84 28.34,-76.16 0,-8.91 -8.81,-17.71 -17.71,-17.71l-120.45 0c-9.54,0 -17.71,8.08 -17.71,17.71zm-375.52 -439.29l0 318.84c0,41.83 11.15,102.63 25.05,139.68 2.37,6.3 4.95,13.32 7.82,20.52 11.85,29.67 30.44,64.03 48.58,89.58 9.64,13.58 24.71,34.67 36.77,46.48l41.93 41.32c43.26,33.6 84.8,63.94 139.39,82.02 15.03,4.98 26.78,9.18 43.37,13.31 133.54,33.27 284.18,3.65 388.08,-80.97 5.58,-4.55 9.87,-8.49 15.48,-12.86 20.91,-16.34 38.23,-36.21 55.53,-56.06 66.59,-76.41 104.9,-184.95 104.9,-286.56l0 -315.29c0,-19.41 -34.37,-28.69 -38.6,2.14 -1.65,12.02 1.09,10.24 -3.44,33.76 -4.28,22.26 -10.46,37.72 -17.07,57.33l-21.18 51.44c-11.89,25.64 -29.06,58.79 -44.02,83.51 -13.59,22.46 -20.18,35.03 -36.84,57.04 -16.67,22.03 -37.55,36.92 -60.57,51.02 -5.08,3.11 -19.7,10.4 -26.26,10.94 0,-26.81 -19.73,-77.66 -34.38,-102.01 -2.83,-4.7 -6.1,-9.68 -9.5,-13.53l-22.4 -21.88c-11.58,-8.74 -17.16,-11.08 -30.5,-15.56 -69.14,-23.24 -147.6,-27.51 -216.24,-0.6 -11.33,4.44 -21.02,7.32 -30.9,15.16 -4.29,3.4 -8.63,6.63 -12.61,10.41 -27.29,25.99 -54.42,93.14 -54.42,128.02 -25.89,-2.15 -68.79,-40.32 -86.27,-60.75 -11.3,-13.2 -20.31,-29.27 -29.63,-44.77 -9.58,-15.93 -18.6,-30.51 -26.99,-47.41 -24.87,-50.14 -60.24,-118.7 -65.88,-175.01 -1.08,-10.77 3.4,-36.96 -21.5,-36.96 -8.91,0 -17.71,8.81 -17.71,17.71z"/>
 </g>
</svg>
