<?xml version="1.0" encoding="UTF-8"?>
<!DOCTYPE svg PUBLIC "-//W3C//DTD SVG 1.1//EN" "http://www.w3.org/Graphics/SVG/1.1/DTD/svg11.dtd">
<!-- Creator: CorelDRAW 2019 (64 Bit) -->
<svg xmlns="http://www.w3.org/2000/svg" xml:space="preserve" width="43.3494mm" height="43.3494mm" version="1.1" style="shape-rendering:geometricPrecision; text-rendering:geometricPrecision; image-rendering:optimizeQuality; fill-rule:evenodd; clip-rule:evenodd"
viewBox="0 0 4085.22 4085.22"
 xmlns:xlink="http://www.w3.org/1999/xlink">
 <defs>
  <style type="text/css">
   <![CDATA[
    .fil0 {fill:#A68160}
   ]]>
  </style>
 </defs>
 <g id="Camada_x0020_1">
  <metadata id="CorelCorpID_0Corel-Layer"/>
  <g id="_2675468970400">
   <path class="fil0" d="M-0 758c0,249.96 188.44,414.91 406.93,414.91 108.66,0 1479.41,-400.29 1701.47,-444.86 564.08,-113.21 1271.97,-79.46 1800.13,118.87 46.1,17.31 176.69,85.39 176.69,14.81 0,-37.64 -29.86,-56.93 -51.24,-84.41 -48.67,-62.58 -150.63,-163.88 -209.91,-220.94l-154.79 -132.45c-107.72,-85.31 -219.36,-168.71 -341.96,-232.53 -248.82,-129.51 -437.54,-185.05 -639.86,-191.39l-80.99 0c-116.92,3.5 -241.26,21.62 -386.28,49.93l-1064.3 188.39c-240.95,40.56 -469.33,84.99 -712.51,125.29 -175.8,29.14 -307.92,62.02 -398.22,224.14 -24.19,43.43 -45.18,105.88 -45.18,170.24z"/>
   <path class="fil0" d="M486.72 3183.61c32.83,49.02 158.92,162.9 209.45,213.43 42.03,42.03 184.63,184.81 221.42,209.45 63.7,-42.66 191.3,-196.79 246.16,-240.56 92.8,-74.03 293.12,-294.54 394.04,-387.89 150.46,-139.16 328,-332.67 450.56,-435.11 84.68,-70.78 311.82,-325.49 397.93,-391.98 28.08,-21.68 81.28,-73.71 99.12,-100.36l-430.86 -422.89c-37.83,25.33 -232.99,229 -293.23,289.24l-446.79 438.88c-22.95,23.21 -31.25,27.89 -55.53,48.19 -108.99,91.09 -292.7,310.47 -392.14,389.8 -111.46,88.91 -333.26,344.99 -400.13,389.78z"/>
   <path class="fil0" d="M-0 3702.24c0,97.3 55.35,123.16 157.59,225.4 65.99,65.99 128.78,145.73 201.59,157.59l36.6 0c30.16,-4.95 62.22,-22.52 96.99,-57.78 54.12,-54.87 225.12,-217.33 249.27,-253.4l-209.45 -205.46c-50.53,-50.52 -164.41,-176.61 -213.43,-209.45 -44.5,11.88 -200.65,198.03 -254.26,240.44 -27.3,21.59 -64.9,57.17 -64.9,102.66z"/>
   <path class="fil0" d="M2242.09 1460.15c38.74,57.86 122.41,119.57 161.73,157.43l163.4 163.73c25.54,25.53 83.39,93.64 113.7,101.73 8.67,-37.22 99.29,-217.02 120.81,-270.17 44.14,-109.03 118.56,-210.04 118.56,-304.32 0,-59.05 -55.89,-87.77 -119.68,-87.77 -43.4,0 -513.42,228.86 -558.52,239.37z"/>
  </g>
 </g>
</svg>
