<?xml version="1.0" encoding="UTF-8"?>
<!DOCTYPE svg PUBLIC "-//W3C//DTD SVG 1.1//EN" "http://www.w3.org/Graphics/SVG/1.1/DTD/svg11.dtd">
<!-- Creator: CorelDRAW 2019 (64 Bit) -->
<svg xmlns="http://www.w3.org/2000/svg" xml:space="preserve" width="19.3124mm" height="24.173mm" version="1.1" style="shape-rendering:geometricPrecision; text-rendering:geometricPrecision; image-rendering:optimizeQuality; fill-rule:evenodd; clip-rule:evenodd"
viewBox="0 0 1931.24 2417.3"
 xmlns:xlink="http://www.w3.org/1999/xlink">
 <defs>
  <style type="text/css">
   <![CDATA[
    .fil1 {fill:#262626}
    .fil0 {fill:#A68160}
   ]]>
  </style>
 </defs>
 <g id="Camada_x0020_1">
  <metadata id="CorelCorpID_0Corel-Layer"/>
  <g id="_2675470401360">
   <path class="fil0" d="M1642.24 1827.22c-21.25,50.18 -49.58,90.32 -85,120.42 -35.42,30.1 -76.44,51.35 -123.07,63.75 -46.63,12.4 -94.74,18.59 -144.32,18.59l-19.69 0 1.07 187.71 34.55 0c85,0 165.58,-11.22 241.72,-33.65 76.15,-22.43 142.55,-57.55 199.22,-105.36 56.67,-47.81 101.53,-108.02 134.58,-180.62 33.06,-72.61 49.58,-159.67 49.58,-261.2 0,-88.54 -13.87,-166.16 -41.61,-232.86 -27.74,-66.7 -67,-122.48 -117.76,-167.34 -50.76,-44.87 -111.56,-78.51 -182.39,-100.94 -70.84,-22.43 -149.34,-33.65 -235.52,-33.65l-88.74 0 1.08 187.71 55.78 0c107.43,0 193.02,29.81 256.77,89.43 63.75,59.61 95.63,145.5 95.63,257.65 0,76.74 -10.63,140.19 -31.88,190.36z"/>
   <path class="fil1" d="M1188.39 180.37c-35.94,-23.8 -32.75,-10.05 -67.03,36.09 -90.99,122.46 -36.43,248.09 -46.34,277.6 -160.16,170.54 -1469.16,1525.35 -957.45,1644.87 151.75,35.44 175.25,-151.91 221.22,-254.24 98.79,-216.57 770.42,-1313.32 771.88,-1209.27 -8.32,111.37 34.58,310.53 -46.48,432.95 -35.09,15.91 -59.92,6.84 -94.6,41.53 -13.02,16.49 -71.36,1011.64 -11.73,1090.44 56.98,17.82 180.38,12.75 216.54,5.96 16.57,-133.18 -0.44,-1293.22 -8.18,-1545.62 -4.23,-41.01 -9.12,-57.83 0.12,-100.31 15.02,-23.82 70.04,-23.14 60.68,-125.65 -17.4,-9.21 -40.22,-35.6 -88.07,-20.53 -2.61,0.82 -14.8,8.72 -17.79,10.61 -1.96,-13.59 -3.13,3.71 2.59,-11.96 34.11,-93.37 -86.67,-120.28 64.64,-272.47zm-73.69 345.01c38.84,17.13 29.1,9.98 19.47,52.1l-45.58 -10.91c8.28,-40.99 -4.41,-21.36 26.11,-41.19z"/>
  </g>
 </g>
</svg>
