<?xml version="1.0" encoding="UTF-8"?>
<!DOCTYPE svg PUBLIC "-//W3C//DTD SVG 1.1//EN" "http://www.w3.org/Graphics/SVG/1.1/DTD/svg11.dtd">
<!-- Creator: CorelDRAW 2019 (64 Bit) -->
<svg xmlns="http://www.w3.org/2000/svg" xml:space="preserve" width="43.3493mm" height="36.9559mm" version="1.1" style="shape-rendering:geometricPrecision; text-rendering:geometricPrecision; image-rendering:optimizeQuality; fill-rule:evenodd; clip-rule:evenodd"
viewBox="0 0 1321.12 1126.27"
 xmlns:xlink="http://www.w3.org/1999/xlink">
 <defs>
  <style type="text/css">
   <![CDATA[
    .fil0 {fill:#A68160}
   ]]>
  </style>
 </defs>
 <g id="Camada_x0020_1">
  <metadata id="CorelCorpID_0Corel-Layer"/>
  <path class="fil0" d="M516.06 31.92c-12.61,0 -22.06,-1.09 -25.8,12.9 15.76,1.31 36.45,6.64 50.64,11.29 16.05,5.26 36.39,8.15 44.83,19.68 -129.42,30.15 -274.03,72.65 -380.41,153.72 -40.85,31.13 -94.37,26.29 -94.37,96.57 0,11.22 11.21,28.06 15.48,36.13 -29.52,0 -64.21,34.63 -80.64,50.96 -24.23,24.09 -45.8,53.2 -45.8,90.96 0,55.61 8.12,114.16 14.7,163.35 7.31,54.65 15.28,104.53 21.9,158.72 7.85,64.3 34.01,267 79.52,279.15 23.27,-43.97 18.11,-214.44 18.06,-283.83 -0.01,-9.16 -3.48,-38.7 5.16,-38.7 22.06,0 23.57,13.33 33.55,20.64 5.47,-22.87 -2.25,-41.79 -12.9,-61.93 17.67,4.72 27.19,24.11 41.29,33.55 0,-56 -29.05,-65.95 -23.35,-97.96 2.27,-12.71 5.28,-24.41 5.28,-38.79 10.91,2.54 25.49,16.69 36.4,25.52 6.87,5.56 3.56,5.6 12.62,8.02 -3.71,-7.72 -6.43,-31.07 -8.81,-42.79 -2.4,-11.75 -5.57,-37.28 -9.25,-44.94 50.66,11.8 108.66,14.93 160.58,3.18 51.57,-11.68 76.84,-27.86 154.65,-38.88 77.07,-10.91 166.87,-11.74 226.61,15.08 28.03,12.58 57.54,30.12 80.42,48.59 23.73,19.15 42.24,43.76 58.47,70.54 24.02,39.62 62.39,150.55 62.39,195.64 33.98,-9.07 20.43,-82.28 14.61,-102.35 -5.33,-18.37 -9.04,-34.19 -15.7,-51.39 -12.53,-32.32 -23.88,-63.14 -40.2,-93.98 24.2,5.64 39.88,19.45 53.16,37.16 11.68,15.58 27.71,42.49 31.99,60.89 6.27,-4.6 7.74,-5.68 7.74,-28.38 0,-44.27 -39.53,-88.09 -69.04,-114.16 -5.31,-4.69 -11.25,-9.15 -17.2,-13.76 -6.2,-4.81 -13.06,-8.66 -16.97,-13.99 20.76,1.73 84.67,26.78 106.53,35.39 6.29,2.48 10.61,3.77 16.49,6.73 51.97,26.13 51.6,34.55 47.66,69.21 -2.58,22.65 -0.14,97.44 -2.59,139.35l2.22 46.06c-0.02,31.84 -0.13,63.72 -0.09,95.56 0.02,16.98 2.86,24.78 2.67,43.78l6.18 91.88c2.46,17.2 6.09,25.91 9.3,39.72 11.92,0 9.63,2.03 16.12,-4.52 24.85,-25.05 40.17,-160.3 50.4,-199.89 11.47,-44.36 33.6,-87.43 51.42,-129.2 12.46,-29.2 46.85,-89.43 65.26,-115.36 24.11,-33.95 30.95,-36 30.95,-74.84 0,-77.97 -95.25,-183.01 -98.05,-193.52 52.57,4.37 90.01,58.22 110.95,72.25 -7.74,-33.24 -35.29,-77.67 -56.4,-103.58 -47.48,-58.28 -121.55,-105.29 -196.47,-123.49 -33.26,-8.08 -31.45,-7.58 -36.21,-43.77 -8.88,-67.5 -86.2,-79.66 -145.42,-94.55 -88.79,-22.32 -99.64,-20.85 -188.99,-50.97l-56.61 -23.38c-19.61,-8.19 -35.91,-17.3 -54.9,-25.09 -16.36,-6.7 -40.09,-19.68 -59.72,-15.11l0 5.16c30.56,2.54 73.85,40.55 95.47,59.35 -9.3,-2.17 -15.44,-6.5 -23.18,-10.36 -18.93,-9.45 -59.01,-23.18 -82.61,-23.18z"/>
 </g>
</svg>
